Coordinates
version=1
nRows=8
nColumns=46
inDegrees=yes

Units are S.I. units (second, meters, Newtons, ...)
Angles are in degrees.

endheader
time	pelvis_tilt	pelvis_list	pelvis_rotation	pelvis_tx	pelvis_ty	pelvis_tz	bb_angle	bb_tx	bb_ty	bb_tz	hip_flexion_r	hip_adduction_r	hip_rotation_r	knee_angle_r	knee_angle_r_beta	ankle_angle_r	subtalar_angle_r	mtp_angle_r	crank_angle_r	hip_flexion_l	hip_adduction_l	hip_rotation_l	knee_angle_l	knee_angle_l_beta	ankle_angle_l	subtalar_angle_l	mtp_angle_l	crank_angle_l	lumbar_extension	lumbar_bending	lumbar_rotation	arm_flex_r	arm_add_r	arm_rot_r	elbow_flex_r	pro_sup_r	wrist_flex_r	wrist_dev_r	arm_flex_l	arm_add_l	arm_rot_l	elbow_flex_l	pro_sup_l	wrist_flex_l	wrist_dev_l
      5.00000000	    -29.75499808	      6.29413376	     16.61248061	      0.38704678	      1.07567913	     -0.23180972	      0.00000000	      0.50000000	      0.00000000	      0.25000000	     32.84646016	    -16.12218254	     -3.75789100	     33.53409331	      0.58528034	    -19.35644656	     -6.23055048	      0.00000000	      0.00000000	     82.26211711	      4.04904693	     -1.84225496	    104.50134299	      1.82389251	     19.79321937	      7.48460406	      0.00000000	      0.00000000	    -44.60020876	     -6.32284393	    -19.63911515	     59.53163489	     -0.76332648	     24.91487647	     28.20099344	     47.86917150	      0.00000000	      0.00000000	     50.05979929	    -17.56554434	     19.93579450	     71.52112427	     49.83507396	      0.00000000	      0.00000000
      5.00500000	    -29.52740933	      5.92632110	     16.95434888	      0.38729984	      1.07628370	     -0.23234068	      0.00000000	      0.50000000	      0.00000000	      0.25000000	     32.87322143	    -15.97386843	     -4.19282401	     35.61386882	      0.62157927	    -18.50233304	     -6.34870039	      0.00000000	      0.00000000	     81.68548452	      4.30918692	     -1.84981142	    102.84632584	      1.79500701	     21.10114505	      7.29894474	      0.00000000	      0.00000000	    -44.79992881	     -6.09298730	    -19.44192889	     59.40032271	     -1.12253186	     24.73861896	     28.18840534	     47.85862539	      0.00000000	      0.00000000	     50.18619351	    -17.04847427	     19.98557956	     71.44519293	     49.81436252	      0.00000000	      0.00000000
      5.01000000	    -29.20429017	      5.49071891	     17.10234093	      0.38772498	      1.07688566	     -0.23279419	      0.00000000	      0.50000000	      0.00000000	      0.25000000	     32.97288119	    -15.68498256	     -4.54845553	     37.86041506	      0.66078890	    -17.66471441	     -6.03232657	      0.00000000	      0.00000000	     80.87754894	      4.41133700	     -1.64484241	    101.07101534	      1.76402200	     22.54121182	      7.54024989	      0.00000000	      0.00000000	    -44.99626093	     -5.91565211	    -19.07312767	     59.22496716	     -1.52850407	     24.55652228	     28.16836391	     47.86142926	      0.00000000	      0.00000000	     50.37701639	    -16.33502066	     19.96412107	     71.10626306	     49.73278655	      0.00000000	      0.00000000
      5.01500000	    -28.78833588	      4.91343013	     17.10354749	      0.38820609	      1.07756433	     -0.23297755	      0.00000000	      0.50000000	      0.00000000	      0.25000000	     33.05311729	    -15.09675664	     -4.71509242	     40.00863745	      0.69828245	    -17.36700940	     -6.29123609	      0.00000000	      0.00000000	     79.97218089	      4.24898408	     -1.39361875	     99.17474203	      1.73092578	     23.56880585	      7.36561190	      0.00000000	      0.00000000	    -45.17591444	     -5.59655880	    -18.74753727	     59.19842713	     -1.64120066	     24.52637161	     28.12083077	     47.85954939	      0.00000000	      0.00000000	     50.35990758	    -16.12501317	     19.94483510	     70.97830684	     49.70322498	      0.00000000	      0.00000000
      5.02000000	    -28.43109840	      4.40141167	     17.14774912	      0.38857878	      1.07818622	     -0.23331417	      0.00000000	      0.50000000	      0.00000000	      0.25000000	     33.30869421	    -14.65138347	     -4.90552320	     42.38178685	      0.73970172	    -16.77396913	     -6.38783707	      0.00000000	      0.00000000	     78.99096773	      4.25152491	     -1.09597458	     97.08147280	      1.69439134	     24.53065284	      7.32069999	      0.00000000	      0.00000000	    -45.40859907	     -5.39770389	    -18.34824502	     59.21118888	     -1.86185642	     24.52846637	     27.91423674	     47.84568382	      0.00000000	      0.00000000	     50.46495265	    -15.67278881	     19.88458480	     70.74256053	     49.64409811	      0.00000000	      0.00000000
      5.02500000	    -27.98716634	      3.76960462	     17.03871395	      0.38899929	      1.07874190	     -0.23349646	      0.00000000	      0.50000000	      0.00000000	      0.25000000	     33.57672269	    -13.98159338	     -4.98941094	     44.72945696	      0.78067630	    -16.56849134	     -6.50291003	      0.00000000	      0.00000000	     77.94862159	      4.00277705	     -0.65660918	     94.98013827	      1.65771614	     25.11440859	      7.34874906	      0.00000000	      0.00000000	    -45.54306381	     -5.09811769	    -17.89767781	     59.36559774	     -1.94818143	     24.53909557	     27.81304955	     47.83682258	      0.00000000	      0.00000000	     50.40760895	    -15.47610718	     19.84170296	     70.56764435	     49.60512571	      0.00000000	      0.00000000
      5.03000000	    -27.54609195	      3.18476733	     16.87358468	      0.38939995	      1.07924592	     -0.23376933	      0.00000000	      0.50000000	      0.00000000	      0.25000000	     33.93070073	    -13.37910945	     -5.06817862	     47.17756496	      0.82340384	    -16.19394518	     -6.57822848	      0.00000000	      0.00000000	     76.87316228	      3.71632531	     -0.29162473	     92.81158286	      1.61986770	     25.49376298	      7.43604193	      0.00000000	      0.00000000	    -45.68266526	     -4.84156062	    -17.37814727	     59.45507258	     -2.02708735	     24.60953814	     27.53438378	     47.81351246	      0.00000000	      0.00000000	     50.41847647	    -15.19868095	     19.77709922	     70.35013891	     49.55382717	      0.00000000	      0.00000000
      5.03500000	    -27.10034864	      2.66805195	     16.59491409	      0.38981903	      1.07967111	     -0.23397122	      0.00000000	      0.50000000	      0.00000000	      0.25000000	     34.37944085	    -12.83877735	     -5.09666622	     49.72235890	      0.86781887	    -15.71086793	     -6.12066956	      0.00000000	      0.00000000	     75.78559480	      3.24445171	     -0.07790841	     90.63849057	      1.58194009	     25.49417186	      7.66371937	      0.00000000	      0.00000000	    -45.67103041	     -4.79936043	    -16.56386173	     59.97753072	     -2.11137384	     25.44777638	     25.59656600	     47.71559237	      0.00000000	      0.00000000	     50.88059504	    -14.13600216	     19.64116078	     68.63130738	     49.19039212	      0.00000000	      0.00000000
